<?xml version="1.0" standalone="no"?>
<!DOCTYPE svg PUBLIC "-//W3C//DTD SVG 20010904//EN" "http://www.w3.org/TR/2001/REC-SVG-20010904/DTD/svg10.dtd">
<svg xmlns="http://www.w3.org/2000/svg" version="1.0" width="932.000000pt" height="940.000000pt" viewBox="0 0 932.000000 940.000000" preserveAspectRatio="xMidYMid meet" style="background-color:transparent;">
  <metadata>
Created by potrace 1.16, written by Peter Selinger 2001-2019
</metadata>
  <g transform="translate(0.000000,940.000000) scale(0.100000,-0.100000)" fill="#000000" stroke="none">
    <path d="M4530 9389 c-352 -23 -553 -47 -790 -95 -1234 -247 -2347 -1016 -3019 -2085 -377 -601 -615 -1286 -685 -1974 -9 -82 -21 -199 -27 -260 -25 -246 8 -718 77 -1095 252 -1369 1098 -2558 2318 -3260 562 -323 1241 -536 1881 -590 72 -6 163 -15 203 -21 95 -12 319 -12 435 1 51 6 163 17 250 25 803 77 1616 394 2266 886 195 147 309 246 491 429 188 187 284 298 440 505 493 655 821 1479 914 2295 44 384 42 733 -5 1120 -111 909 -505 1805 -1099 2500 -114 133 -364 385 -495 498 -396 341 -852 615 -1345 807 -448 175 -917 275 -1425 305 -99 5 -198 12 -220 14 -22 2 -96 0 -165 -5z m639 -164 c1042 -116 1997 -566 2745 -1295 637 -620 1072 -1394 1260 -2240 159 -716 147 -1423 -36 -2144 -269 -1061 -959 -2021 -1898 -2641 -201 -133 -313 -197 -540 -309 -486 -240 -980 -384 -1555 -453 -215 -25 -807 -25 -1015 0 -855 106 -1593 397 -2245 887 -1137 853 -1805 2194 -1805 3620 0 827 230 1658 654 2364 202 336 407 598 691 882 248 249 446 414 705 586 629 418 1386 685 2115 747 72 6 148 13 170 15 95 9 619 -4 754 -19z"/>
    <path d="M5070 7805 c-316 -49 -561 -255 -744 -621 -132 -264 -230 -570 -367 -1147 -41 -174 -65 -256 -77 -265 -13 -10 -69 -13 -249 -10 -232 3 -232 3 -242 -39 -6 -23 -11 -44 -11 -47 0 -3 110 -6 245 -6 135 0 245 -2 245 -5 0 -15 -139 -625 -265 -1164 -79 -339 -164 -722 -190 -851 -203 -1025 -406 -1492 -687 -1586 -109 -36 -274 3 -331 77 -37 49 -46 77 -68 223 -22 146 -38 183 -93 210 -49 24 -97 11 -151 -41 -55 -55 -76 -110 -77 -197 0 -109 48 -192 148 -255 97 -62 238 -93 419 -93 543 2 856 361 1074 1231 27 108 90 396 140 641 83 408 392 1777 406 1800 4 6 79 10 190 10 184 0 184 0 230 45 25 25 45 47 45 48 0 2 -93 1 -207 -1 -115 -1 -214 1 -221 6 -13 9 20 156 174 792 139 570 316 947 510 1090 90 67 163 93 264 93 186 1 276 -72 303 -244 12 -79 3 -191 -34 -429 -26 -168 -22 -235 17 -269 24 -20 35 -22 75 -18 55 7 134 44 165 79 126 138 107 497 -38 713 -60 91 -122 146 -213 189 -114 55 -222 66 -385 41z"/>
    <path d="M5553 6019 c-349 -73 -638 -270 -884 -602 -249 -335 -445 -827 -516 -1297 -23 -157 -23 -459 1 -590 41 -226 123 -396 253 -527 67 -68 98 -90 175 -127 360 -174 828 -73 1172 253 67 64 226 254 226 270 0 6 -8 11 -18 11 -11 0 -44 -32 -81 -79 -129 -165 -302 -304 -460 -371 -231 -98 -499 -99 -653 -1 -179 113 -271 334 -285 681 -25 652 281 1591 664 2035 131 152 306 270 463 311 41 11 103 17 170 17 219 1 288 -70 355 -363 19 -83 44 -169 55 -191 28 -53 72 -79 135 -79 98 1 171 56 200 152 62 208 -61 370 -350 461 -190 59 -442 74 -622 36z"/>
  </g>
</svg>
